<svg width="41" height="39" viewBox="0 0 41 39" fill="none" xmlns="http://www.w3.org/2000/svg">
<g id="fl&#195;&#168;che en haut">
<path id="Vector" d="M21.0429 8.65366C20.7932 8.42434 20.4601 8.29626 20.1137 8.29626C19.7672 8.29626 19.4342 8.42434 19.1844 8.65366L12.0601 15.2018C11.1899 16.001 11.7825 17.4046 12.9894 17.4046H17.0966C17.1855 17.4046 17.2708 17.4383 17.3337 17.4984C17.3965 17.5584 17.4318 17.6398 17.4318 17.7248V30.2115C17.4318 30.5511 17.5731 30.8769 17.8246 31.117C18.0761 31.3572 18.4171 31.4921 18.7728 31.4921H21.4546C21.8102 31.4921 22.1513 31.3572 22.4028 31.117C22.6542 30.8769 22.7955 30.5511 22.7955 30.2115V17.7248C22.7955 17.6398 22.8308 17.5584 22.8937 17.4984C22.9566 17.4383 23.0418 17.4046 23.1307 17.4046H27.238C28.4448 17.4046 29.0375 16.001 28.1672 15.2018L21.0429 8.65366Z" fill="white"/>
<path id="Vector_2" d="M6.7046 0.115234C5.82414 0.115234 4.9523 0.280864 4.13886 0.602667C3.32542 0.924469 2.58631 1.39614 1.96373 1.99076C0.706375 3.19163 0 4.82037 0 6.51867V32.1324C0 33.8307 0.706375 35.4594 1.96373 36.6603C2.58631 37.2549 3.32542 37.7266 4.13886 38.0484C4.9523 38.3702 5.82414 38.5358 6.7046 38.5358H33.523C35.3012 38.5358 37.0065 37.8612 38.2639 36.6603C39.5212 35.4594 40.2276 33.8307 40.2276 32.1324V6.51867C40.2276 5.67776 40.0542 4.84508 39.7172 4.06818C39.3803 3.29128 38.8864 2.58537 38.2639 1.99076C37.6413 1.39614 36.9022 0.924469 36.0887 0.602667C35.2753 0.280864 34.4035 0.115234 33.523 0.115234H6.7046ZM2.68184 6.51867C2.68184 5.49969 3.10567 4.52245 3.86008 3.80192C4.61449 3.08139 5.6377 2.67661 6.7046 2.67661H33.523C34.5899 2.67661 35.6131 3.08139 36.3675 3.80192C37.1219 4.52245 37.5458 5.49969 37.5458 6.51867V32.1324C37.5458 33.1514 37.1219 34.1286 36.3675 34.8491C35.6131 35.5697 34.5899 35.9745 33.523 35.9745H6.7046C5.6377 35.9745 4.61449 35.5697 3.86008 34.8491C3.10567 34.1286 2.68184 33.1514 2.68184 32.1324V6.51867Z" fill="white"/>
</g>
</svg>
