<svg width="51" height="50" viewBox="0 0 51 50" fill="none" xmlns="http://www.w3.org/2000/svg">
<g id="lieu">
<path id="Vector" d="M25.5002 37.5L15.7943 24.0625C14.2056 22.2235 13.1825 19.9799 12.8442 17.593C12.5058 15.206 12.8662 12.7739 13.8832 10.5799C14.9003 8.38597 16.5322 6.52044 18.5889 5.20061C20.6456 3.88078 23.0424 3.16096 25.5002 3.125C28.9073 3.15801 32.1621 4.51343 34.5518 6.8944C36.9416 9.27537 38.2715 12.4878 38.2502 15.8281C38.2515 18.7421 37.2396 21.5694 35.3815 23.8438L25.5002 37.5ZM25.5002 6.25C22.9372 6.27885 20.4907 7.30371 18.6978 9.09954C16.9049 10.8954 15.9122 13.3154 15.9377 15.8281C15.9484 18.1216 16.79 20.3367 18.3124 22.0781L25.5002 32.0625L32.8793 21.875C34.2819 20.1585 35.0514 18.0275 35.0627 15.8281C35.0882 13.3154 34.0955 10.8954 32.3027 9.09954C30.5098 7.30371 28.0632 6.27885 25.5002 6.25Z" fill="#0A0F23"/>
<path id="Vector_2" d="M25.5 17.1875C27.2604 17.1875 28.6875 15.7884 28.6875 14.0625C28.6875 12.3366 27.2604 10.9375 25.5 10.9375C23.7396 10.9375 22.3125 12.3366 22.3125 14.0625C22.3125 15.7884 23.7396 17.1875 25.5 17.1875Z" fill="#0A0F23"/>
<path id="Vector_3" d="M44.625 18.75H41.4375V21.875H44.625V43.75H6.375V21.875H9.5625V18.75H6.375C5.52962 18.75 4.71887 19.0792 4.1211 19.6653C3.52332 20.2513 3.1875 21.0462 3.1875 21.875V43.75C3.1875 44.5788 3.52332 45.3737 4.1211 45.9597C4.71887 46.5458 5.52962 46.875 6.375 46.875H44.625C45.4704 46.875 46.2811 46.5458 46.8789 45.9597C47.4767 45.3737 47.8125 44.5788 47.8125 43.75V21.875C47.8125 21.0462 47.4767 20.2513 46.8789 19.6653C46.2811 19.0792 45.4704 18.75 44.625 18.75Z" fill="#0A0F23"/>
</g>
</svg>
